<svg width="144" height="144" viewBox="0 0 144 144" fill="none" xmlns="http://www.w3.org/2000/svg">
<rect width="144" height="144" rx="32" fill="#1A1C1C"/>
<path d="M43.76 57.92V63.4H32.32V69.32H40.88V74.64H32.32V86H25.48V57.92H43.76ZM45.995 74.8C45.995 72.5067 46.4217 70.4933 47.275 68.76C48.155 67.0267 49.3417 65.6933 50.835 64.76C52.3283 63.8267 53.995 63.36 55.835 63.36C57.4083 63.36 58.7817 63.68 59.955 64.32C61.155 64.96 62.075 65.8 62.715 66.84V63.68H69.555V86H62.715V82.84C62.0483 83.88 61.115 84.72 59.915 85.36C58.7417 86 57.3683 86.32 55.795 86.32C53.9817 86.32 52.3283 85.8533 50.835 84.92C49.3417 83.96 48.155 82.6133 47.275 80.88C46.4217 79.12 45.995 77.0933 45.995 74.8ZM62.715 74.84C62.715 73.1333 62.235 71.7867 61.275 70.8C60.3417 69.8133 59.195 69.32 57.835 69.32C56.475 69.32 55.315 69.8133 54.355 70.8C53.4217 71.76 52.955 73.0933 52.955 74.8C52.955 76.5067 53.4217 77.8667 54.355 78.88C55.315 79.8667 56.475 80.36 57.835 80.36C59.195 80.36 60.3417 79.8667 61.275 78.88C62.235 77.8933 62.715 76.5467 62.715 74.84ZM81.3434 56.4V86H74.5034V56.4H81.3434ZM107.34 74.48C107.34 75.12 107.3 75.7867 107.22 76.48H91.7403C91.847 77.8667 92.287 78.9333 93.0603 79.68C93.8603 80.4 94.8336 80.76 95.9803 80.76C97.687 80.76 98.8736 80.04 99.5403 78.6H106.82C106.447 80.0667 105.767 81.3867 104.78 82.56C103.82 83.7333 102.607 84.6533 101.14 85.32C99.6736 85.9867 98.0336 86.32 96.2203 86.32C94.0336 86.32 92.087 85.8533 90.3803 84.92C88.6736 83.9867 87.3403 82.6533 86.3803 80.92C85.4203 79.1867 84.9403 77.16 84.9403 74.84C84.9403 72.52 85.407 70.4933 86.3403 68.76C87.3003 67.0267 88.6336 65.6933 90.3403 64.76C92.047 63.8267 94.007 63.36 96.2203 63.36C98.3803 63.36 100.3 63.8133 101.98 64.72C103.66 65.6267 104.967 66.92 105.9 68.6C106.86 70.28 107.34 72.24 107.34 74.48ZM100.34 72.68C100.34 71.5067 99.9403 70.5733 99.1403 69.88C98.3403 69.1867 97.3403 68.84 96.1403 68.84C94.9936 68.84 94.0203 69.1733 93.2203 69.84C92.447 70.5067 91.967 71.4533 91.7803 72.68H100.34ZM114.389 61.36C113.189 61.36 112.202 61.0133 111.429 60.32C110.682 59.6 110.309 58.72 110.309 57.68C110.309 56.6133 110.682 55.7333 111.429 55.04C112.202 54.32 113.189 53.96 114.389 53.96C115.562 53.96 116.522 54.32 117.269 55.04C118.042 55.7333 118.429 56.6133 118.429 57.68C118.429 58.72 118.042 59.6 117.269 60.32C116.522 61.0133 115.562 61.36 114.389 61.36ZM117.789 63.68V86H110.949V63.68H117.789Z" fill="#DD9EF3"/>
</svg>
